HIERARCHY
ROOT hip
{
	OFFSET 0.000000 0.000000 0.000000 
	CHANNELS 6 Xposition Yposition Zposition Xrotation Zrotation Yrotation
	JOINT abdomen
	{
		OFFSET 0.000000 3.402643 0.000000 
		CHANNELS 3 Xrotation Zrotation Yrotation
		JOINT chest
		{
			OFFSET 0.000000 8.438565 -0.680529 
			CHANNELS 3 Xrotation Zrotation Yrotation
			JOINT neck
			{
				OFFSET 0.000000 10.207942 -0.272212 
				CHANNELS 3 Xrotation Zrotation Yrotation
				JOINT head
				{
					OFFSET 0.000000 3.130431 0.000000 
					CHANNELS 3 Xrotation Zrotation Yrotation
					End Site
					{
						OFFSET 0.000000 3.130435 0.000000 
					}
				}
			}
			JOINT lCollar
			{
				OFFSET 3.470700 6.669187 -0.816635 
				CHANNELS 3 Yrotation Zrotation Xrotation
				JOINT lShldr
				{
					OFFSET 3.198488 0.000000 0.000000 
					CHANNELS 3 Zrotation Yrotation Xrotation
					JOINT lForeArm
					{
						OFFSET 10.139888 0.000000 0.000000 
						CHANNELS 3 Yrotation Zrotation Xrotation
						JOINT lHand
						{
							OFFSET 8.370511 0.000000 0.000000 
							CHANNELS 3 Zrotation Yrotation Xrotation
							End Site
							{
								OFFSET 4.083176 0.000000 0.000000 
							}
						}
					}
				}
			}
			JOINT rCollar
			{
				OFFSET -3.470700 6.669187 -0.816635 
				CHANNELS 3 Yrotation Zrotation Xrotation
				JOINT rShldr
				{
					OFFSET -3.198488 0.000000 0.000000 
					CHANNELS 3 Zrotation Yrotation Xrotation
					JOINT rForeArm
					{
						OFFSET -10.139888 0.000000 0.000000 
						CHANNELS 3 Yrotation Zrotation Xrotation
						JOINT rHand
						{
							OFFSET -8.370511 0.000000 0.000000 
							CHANNELS 3 Zrotation Yrotation Xrotation
							End Site
							{
								OFFSET -4.083176 0.000000 0.000000 
							}
						}
					}
				}
			}
		}
	}
	JOINT lThigh
	{
		OFFSET 5.308129 -1.633274 1.361059 
		CHANNELS 3 Xrotation Zrotation Yrotation
		JOINT lShin
		{
			OFFSET -2.041588 -20.007561 0.000000 
			CHANNELS 3 Xrotation Zrotation Yrotation
			JOINT lFoot
			{
				OFFSET 0.000000 -19.190928 -1.224953 
				CHANNELS 3 Xrotation Yrotation Zrotation
				End Site
				{
					OFFSET 0.000000 -2.449906 4.627600 
				}
			}
		}
	}
	JOINT rThigh
	{
		OFFSET -5.308129 -1.633274 1.361059 
		CHANNELS 3 Xrotation Zrotation Yrotation
		JOINT rShin
		{
			OFFSET 2.041588 -20.007561 0.000000 
			CHANNELS 3 Xrotation Zrotation Yrotation
			JOINT rFoot
			{
				OFFSET 0.000000 -19.190928 -1.224953 
				CHANNELS 3 Xrotation Yrotation Zrotation
				End Site
				{
					OFFSET 0.000000 -2.449906 4.627600 
				}
			}
		}
	}
}
MOTION
Frames: 10
Frame Time: 0.011111
3.049399 52.560070 -0.446884 0.545784 8.069729 -60.318336 28.648409 6.205155 -1.589684 -20.297596 1.326870 -1.311541 -15.493886 -5.371223 0.126583 38.885918 7.017354 -0.276579 2.424333 -4.683778 1.783845 -61.061310 -48.145401 26.298769 -42.003975 5.431505 5.099810 8.524705 12.647240 -75.618538 -2.738486 -1.140572 2.095526 62.227497 26.870148 38.594261 97.850891 -9.646820 39.386246 -8.534408 -12.637552 104.368996 4.061677 4.198698 6.950834 15.329398 -5.909736 -2.847235 -33.276047 17.039095 7.819546 -23.645435 -13.192992 25.771040 22.204275 5.688856 3.804377 -30.425652 -24.211390 -9.063178 
2.843399 52.586536 -0.452899 0.462146 8.025005 -60.719078 28.636620 6.273976 -1.456882 -20.219479 1.329121 -1.280437 -15.627751 -4.902898 0.074488 39.038517 6.558075 -0.393425 2.424333 -4.683778 1.783845 -60.797077 -48.089828 26.735247 -42.370827 5.553859 5.226937 8.524705 12.647240 -74.554092 -2.738486 -1.140572 2.095526 62.287601 26.888844 38.459732 97.849396 -9.648779 39.386448 -8.534408 -12.637552 104.583839 4.275745 4.266281 6.951235 15.538921 -5.908027 -2.876242 -33.523659 17.089081 7.934260 -23.412886 -13.017355 25.733488 22.216301 5.683378 3.784853 -29.956902 -24.182981 -8.791354 
2.638602 52.614201 -0.460718 0.545492 7.935949 -60.895882 28.541546 6.654033 -1.376245 -20.141214 1.271854 -1.307074 -15.737089 -4.613641 0.067081 39.165630 6.295714 -0.391866 2.424333 -4.683778 1.783845 -60.572544 -48.004475 27.729204 -42.717663 5.669783 5.357458 8.524705 12.647240 -73.606827 -2.738486 -1.140572 2.095526 62.347546 26.897766 38.266613 97.850891 -9.646820 39.386246 -8.534408 -12.637552 104.740097 4.381741 4.528957 7.113833 15.726374 -5.908594 -2.902811 -33.282925 17.227600 7.897745 -23.140966 -12.734050 25.402117 22.286942 5.677960 3.829801 -29.767437 -23.928726 -8.631582 
2.425385 52.639763 -0.464327 0.352403 7.986175 -61.074772 28.386963 6.697753 -1.387812 -20.023884 1.206171 -1.303625 -15.769731 -4.351694 0.027407 39.327923 6.203867 -0.418101 2.424333 -4.683778 1.783845 -60.346359 -47.850742 28.938005 -43.023838 5.767064 5.463639 8.524705 12.647240 -73.421272 -2.738486 -1.140572 2.095526 62.515499 26.817268 37.891945 97.871292 -9.653347 39.399284 -8.534408 -12.637552 104.984238 4.530437 4.502295 7.520805 15.997369 -5.906998 -2.946841 -32.144028 17.691677 7.548841 -22.897989 -12.812254 25.101448 22.307367 5.678183 3.821876 -29.543348 -23.574617 -8.388045 
2.204047 52.670433 -0.472145 0.127661 8.092714 -61.338425 28.172087 6.689920 -1.483416 -19.946167 1.402923 -1.333422 -15.711105 -4.460018 0.142688 39.415901 6.247251 -0.210438 2.424333 -4.683778 1.783845 -60.402382 -47.664543 29.115068 -43.238731 5.839357 5.545596 8.524705 12.647240 -73.860733 -2.738486 -1.140572 2.095526 62.334492 26.722149 37.719353 97.921509 -9.670254 39.423027 -8.534408 -12.637552 105.326035 4.621564 4.408367 7.853678 16.325043 -5.890189 -2.993361 -30.860851 18.334475 7.204257 -22.740993 -12.909831 24.983934 22.327850 5.678144 3.813904 -29.445875 -23.204147 -8.215798 
1.990830 52.713139 -0.473348 0.056490 8.091257 -61.485943 28.003695 7.003903 -1.625187 -19.926744 1.461234 -1.401923 -15.659870 -4.517770 0.295321 39.632435 6.244368 0.062124 2.424333 -4.683778 1.783845 -60.327366 -47.489574 29.330980 -43.473915 5.915505 5.637478 8.524705 12.647240 -73.577522 -2.738486 -1.140572 2.095526 62.183224 26.616821 37.680176 97.912125 -9.666344 39.422092 -8.534408 -12.637552 105.316261 4.752729 4.500469 7.968157 16.570210 -5.900567 -3.026439 -29.968681 18.821995 6.981169 -22.455896 -12.821859 24.803411 22.357737 5.678331 3.826289 -29.295815 -23.044762 -8.090570 
1.771598 52.748627 -0.487784 -0.042139 8.067173 -61.665665 27.886227 7.166728 -1.710462 -19.887527 1.393441 -1.439305 -15.672695 -4.276150 0.289997 39.863647 6.118186 0.093013 2.424333 -4.683778 1.783845 -60.070667 -47.316620 29.855545 -43.842136 6.029015 5.772796 8.524705 12.647240 -72.727913 -2.738486 -1.140572 2.095526 62.370045 26.477478 37.472279 97.902580 -9.661805 39.411419 -8.534408 -12.637552 105.208839 4.876460 4.595242 8.271296 16.817726 -5.872352 -3.055638 -29.294199 18.991306 6.722585 -22.192959 -12.704571 24.678429 22.397680 5.678596 3.839566 -29.038490 -23.037979 -7.959723 
1.552667 52.776600 -0.511240 -0.153285 8.065289 -61.925228 27.801893 7.237278 -1.660995 -19.848526 1.423809 -1.428862 -15.737856 -4.138523 0.278985 40.088322 6.099386 0.090204 2.424333 -4.683778 1.783845 -59.978397 -47.259029 29.944103 -44.149883 6.127632 5.890220 8.524705 12.647240 -72.093155 -2.738486 -1.140572 2.095526 62.427048 26.320410 37.191265 97.932404 -9.672189 39.423752 -8.534408 -12.637552 105.384628 4.968630 4.695568 8.329007 17.148943 -5.869132 -3.104689 -29.176109 19.004461 6.671161 -21.950731 -12.587622 24.643131 22.430082 5.669451 3.840565 -28.888042 -22.915623 -7.855169 
1.332533 52.794937 -0.537103 -0.304530 8.092327 -62.153484 27.662987 7.275215 -1.686222 -19.790051 1.483697 -1.447420 -15.744356 -4.079726 0.344597 40.229885 6.075115 0.229009 2.424333 -4.683778 1.783845 -59.905170 -47.152397 30.186735 -44.426441 6.207657 5.985489 8.524705 12.647240 -72.093155 -2.738486 -1.140572 2.095526 62.373856 26.125818 37.023396 97.962234 -9.682536 39.436096 -8.534408 -12.637552 105.482277 5.058039 4.746464 8.411208 17.439734 -5.860327 -3.158242 -28.907696 18.944057 6.523455 -21.760818 -12.548136 24.661732 22.510309 5.669773 3.858321 -28.887581 -22.747576 -7.802535 
1.112700 52.820202 -0.553343 -0.467361 8.023915 -62.382084 27.658548 7.404727 -1.661928 -19.750866 1.426092 -1.445964 -15.722371 -4.052130 0.405078 40.249588 6.151226 0.408884 2.424333 -4.683778 1.783845 -59.769810 -46.978073 30.674829 -44.754833 6.307444 6.114831 8.524705 12.647240 -72.288467 -2.738486 -1.140572 2.095526 62.380413 25.930391 36.912037 97.982689 -9.688961 39.447506 -8.534408 -12.637552 105.511581 5.249394 4.821580 8.711179 17.765032 -5.840038 -3.195268 -28.447655 18.797073 6.271193 -21.431362 -12.489730 24.446081 22.581480 5.668359 3.854420 -28.646267 -22.475832 -7.587241 
